<svg xmlns="http://www.w3.org/2000/svg" viewBox="0 0 95.68 130.64"><title>logo</title><g id="Layer_2" data-name="Layer 2"><g id="Layer_1-2" data-name="Layer 1"><path d="M0,47.84A47.84,47.84,0,1,1,47.84,95.68,48,48,0,0,1,0,47.84Zm89.79,82.8h-85V109.3h85ZM21.34,47.84a26.5,26.5,0,1,0,26.5-26.5A26.39,26.39,0,0,0,21.34,47.84Z" style="fill:#87c3c1"/><polygon points="67.99 41.48 54.2 41.48 54.2 27.7 41.48 27.7 41.48 41.48 27.7 41.48 27.7 54.2 41.48 54.2 41.48 67.99 54.2 67.99 54.2 54.2 67.99 54.2 67.99 41.48" style="fill:#ea5250"/></g></g></svg>