<svg width="26" height="26" viewBox="0 0 26 26" fill="none" xmlns="http://www.w3.org/2000/svg">
<path d="M13 1C16.1826 1 19.2348 2.26428 21.4853 4.51472C23.7357 6.76515 25 9.8174 25 13C25 16.1826 23.7357 19.2348 21.4853 21.4853C19.2348 23.7357 16.1826 25 13 25C9.8174 25 6.76515 23.7357 4.51472 21.4853C2.26428 19.2348 1 16.1826 1 13C1 9.8174 2.26428 6.76515 4.51472 4.51472C6.76515 2.26428 9.8174 1 13 1ZM13 2.26316C10.1524 2.26316 7.42145 3.39436 5.40791 5.40791C3.39436 7.42145 2.26316 10.1524 2.26316 13C2.26316 15.8476 3.39436 18.5785 5.40791 20.5921C7.42145 22.6056 10.1524 23.7368 13 23.7368C15.8476 23.7368 18.5785 22.6056 20.5921 20.5921C22.6056 18.5785 23.7368 15.8476 23.7368 13C23.7368 10.1524 22.6056 7.42145 20.5921 5.40791C18.5785 3.39436 15.8476 2.26316 13 2.26316ZM12.3684 7.31579V9.8421H13.6316V7.31579H12.3684ZM12.3684 12.3684V18.6842H13.6316V12.3684H12.3684Z" fill="#F6F1EE" stroke="#F6F1EE"/>
</svg>
